<svg xmlns="http://www.w3.org/2000/svg" xmlns:xlink="http://www.w3.org/1999/xlink" version="1.1" x="0px" y="0px" viewBox="0 0 26 34" style="enable-background:new 0 0 40 40;" xml:space="preserve"><style type="text/css">
	.st0{display:none;}
	.st1{display:inline;}
</style><g><path  fill="#007FFF" d="M25,1.1H7C3.747,1.1,1.1,3.747,1.1,7v18c0,3.253,2.646,5.9,5.9,5.9h18c3.253,0,5.9-2.647,5.9-5.9V7   C30.9,3.747,28.253,1.1,25,1.1z M29.1,25c0,2.261-1.839,4.1-4.1,4.1H7c-2.261,0-4.1-1.839-4.1-4.1V7c0-2.261,1.839-4.1,4.1-4.1h18   c2.261,0,4.1,1.839,4.1,4.1V25z"/><path fill="#007FFF" d="M10.016,21.373c0.097,0,0.194-0.008,0.291-0.024l2.612-0.44c0.362-0.061,0.69-0.23,0.947-0.488l7.463-7.464   c0.621-0.62,0.964-1.446,0.964-2.323c0-0.878-0.342-1.703-0.963-2.323c-1.24-1.242-3.408-1.241-4.647-0.001l-7.465,7.465   c-0.257,0.258-0.425,0.584-0.487,0.945L8.289,19.33c-0.095,0.558,0.088,1.13,0.488,1.53C9.108,21.19,9.556,21.373,10.016,21.373z    M19.006,9.146c0.396,0,0.77,0.155,1.05,0.436c0,0.001,0,0.001,0.001,0.001c0.28,0.28,0.436,0.653,0.436,1.051   c0,0.396-0.155,0.77-0.437,1.05l-1.002,1.003l-2.102-2.102l1.003-1.003C18.235,9.301,18.608,9.146,19.006,9.146z M10.491,17.045   l5.188-5.188l2.103,2.103l-5.162,5.172l-2.556,0.497L10.491,17.045z"/><path fill="#007FFF" d="M22.836,22.854h-0.938c-0.497,0-0.9,0.403-0.9,0.9s0.403,0.9,0.9,0.9h0.938c0.497,0,0.9-0.403,0.9-0.9   S23.333,22.854,22.836,22.854z"/><path fill="#007FFF" d="M18.293,22.854H9.366c-0.497,0-0.9,0.403-0.9,0.9s0.403,0.9,0.9,0.9h8.927c0.497,0,0.9-0.403,0.9-0.9   S18.79,22.854,18.293,22.854z"/></g></svg>